<?xml version="1.0" standalone="no"?>
<!DOCTYPE svg PUBLIC "-//W3C//DTD SVG 20010904//EN"
 "http://www.w3.org/TR/2001/REC-SVG-20010904/DTD/svg10.dtd">
<svg version="1.0" xmlns="http://www.w3.org/2000/svg"
 width="280.000000pt" height="211.000000pt" viewBox="0 0 280.000000 211.000000"
 preserveAspectRatio="xMidYMid meet">

<g transform="translate(0.000000,211.000000) scale(0.100000,-0.100000)"
fill="#000000" stroke="none">
<path d="M1580 1534 c-8 -3 -32 -12 -52 -21 -36 -15 -38 -19 -38 -60 0 -41 2
-44 23 -37 46 14 157 67 157 75 0 9 -55 49 -67 48 -4 0 -15 -3 -23 -5z"/>
<path d="M1392 1408 c-23 -28 -23 -28 -2 -28 21 0 34 19 28 43 -2 9 -10 5 -26
-15z"/>
<path d="M1605 1388 c-27 -12 -52 -23 -54 -24 -2 -2 6 -31 18 -65 12 -35 21
-66 21 -71 0 -4 -21 -14 -47 -22 -52 -15 -52 -15 -26 -83 17 -48 22 -49 82
-28 l42 14 26 -59 c14 -33 29 -60 34 -60 8 0 121 40 127 45 2 2 -11 30 -27 64
l-31 61 52 26 c29 15 54 28 56 29 4 3 -39 115 -44 115 -3 0 -27 -11 -54 -25
-27 -14 -51 -25 -54 -25 -2 0 -14 29 -26 65 -12 36 -27 65 -33 65 -7 -1 -34
-10 -62 -22z"/>
<path d="M1372 1310 c-41 -10 -42 -10 -49 -55 l-6 -38 54 7 c30 4 58 11 63 16
12 12 -2 80 -17 79 -7 -1 -27 -5 -45 -9z"/>
<path d="M570 1195 l0 -105 50 0 c56 0 104 20 120 49 14 27 12 102 -3 122 -21
27 -54 39 -111 39 l-56 0 0 -105z m109 84 c38 -13 51 -35 51 -84 0 -51 -36
-85 -90 -85 l-40 0 0 90 c0 88 1 90 24 90 12 0 37 -5 55 -11z"/>
<path d="M800 1195 c0 -130 18 -141 22 -12 l3 92 35 -90 c20 -49 40 -90 45
-89 6 0 24 37 40 82 17 44 34 84 38 88 4 4 7 -34 7 -84 0 -55 4 -92 10 -92 6
0 10 42 10 105 0 96 -2 105 -19 105 -14 0 -25 -19 -48 -82 -17 -46 -34 -82
-39 -80 -5 2 -22 39 -38 83 -22 60 -33 79 -47 79 -17 0 -19 -9 -19 -105z"/>
<path d="M1081 1286 c-7 -8 -11 -27 -9 -43 3 -24 11 -31 62 -48 66 -23 87 -44
67 -69 -18 -21 -89 -21 -113 1 -10 9 -21 13 -26 9 -15 -15 40 -46 82 -46 57 0
88 23 84 63 -3 26 -9 33 -43 45 -86 30 -95 35 -95 51 0 41 66 56 102 24 22
-19 36 -10 18 12 -17 20 -113 21 -129 1z"/>
<path d="M1368 1158 c-51 -11 -54 -17 -37 -67 12 -35 32 -39 119 -20 42 9 50
14 45 27 -4 10 -12 29 -17 45 -11 30 -27 32 -110 15z"/>
<path d="M1443 1007 c-35 -6 -63 -13 -63 -17 0 -3 17 -23 38 -43 l38 -37 59
11 c33 7 64 15 69 20 12 11 -43 79 -63 77 -9 0 -44 -6 -78 -11z"/>
<path d="M1790 938 l-65 -30 30 -24 c35 -28 70 -25 98 8 17 20 24 79 10 77 -5
0 -37 -14 -73 -31z"/>
<path d="M1595 872 l-50 -15 33 -9 c19 -5 53 -8 76 -6 l42 3 -25 21 c-25 19
-29 20 -76 6z"/>
</g>
</svg>
